<svg width="250" height="250" viewBox="0 0 250 250" version="2.0" xmlns="http://www.w3.org/2000/svg" xmlns:xlink="http://www.w3.org/1999/xlink" xmlns:figma="http://www.figma.com/figma/ns"><title>clipboard</title><desc>Created using Figma 0.90</desc><g id="Canvas" figma:type="canvas"><g id="Presentation" style="mix-blend-mode:normal;" figma:type="group"><g id="Rectangle" style="mix-blend-mode:normal;" figma:type="rounded-rectangle"><use xlink:href="#path0_fill" transform="translate(5.68434e-14 0)" fill="#FFFFFF" style="mix-blend-mode:normal;"/><mask id="mask0_outline_ins"><use xlink:href="#path0_fill" fill="white" transform="translate(5.68434e-14 0)"/></mask><g mask="url(#mask0_outline_ins)"><use xlink:href="#path1_stroke_2x" transform="translate(5.68434e-14 0)" fill="#1589EE" style="mix-blend-mode:normal;"/></g></g><g id="Rectangle 2" style="mix-blend-mode:normal;" figma:type="rounded-rectangle"><use xlink:href="#path2_fill" transform="translate(1 1)" fill="#EEEEEE" style="mix-blend-mode:normal;"/></g><g id="Presentation" style="mix-blend-mode:normal;isolation:isolate;" figma:type="text"><use xlink:href="#path3_fill" transform="translate(125 55.3125)" style="mix-blend-mode:normal;"/></g><g id="Titile 1" style="mix-blend-mode:normal;isolation:isolate;" figma:type="text"><use xlink:href="#path4_fill" transform="translate(39 172)" style="mix-blend-mode:normal;"/></g><g id="Titile 2" style="mix-blend-mode:normal;isolation:isolate;" figma:type="text"><use xlink:href="#path5_fill" transform="translate(107 172)" style="mix-blend-mode:normal;"/></g><g id="Titile 3" style="mix-blend-mode:normal;isolation:isolate;" figma:type="text"><use xlink:href="#path6_fill" transform="translate(175 172)" style="mix-blend-mode:normal;"/></g><g id="Rectangle 3" style="mix-blend-mode:normal;" figma:type="rounded-rectangle"><use xlink:href="#path7_fill" transform="translate(32 32.8125)" fill="#1589EE" style="mix-blend-mode:normal;"/></g><g id="Rectangle 3" style="mix-blend-mode:normal;" figma:type="rounded-rectangle"><use xlink:href="#path8_fill" transform="translate(32 200)" fill="#1589EE" style="mix-blend-mode:normal;"/></g><g id="Rectangle 3" style="mix-blend-mode:normal;" figma:type="rounded-rectangle"><use xlink:href="#path9_fill" transform="translate(100 200)" fill="#1589EE" style="mix-blend-mode:normal;"/></g><g id="Rectangle 3" style="mix-blend-mode:normal;" figma:type="rounded-rectangle"><use xlink:href="#path9_fill" transform="translate(168 200)" fill="#1589EE" style="mix-blend-mode:normal;"/></g></g></g><defs><path id="path0_fill" d="M 0 0L 250 0L 250 250L 0 250L 0 0Z"/><path id="path1_stroke_2x" d="M 0 0L 0 -1L -1 -1L -1 0L 0 0ZM 250 0L 251 0L 251 -1L 250 -1L 250 0ZM 250 250L 250 251L 251 251L 251 250L 250 250ZM 0 250L -1 250L -1 251L 0 251L 0 250ZM 0 1L 250 1L 250 -1L 0 -1L 0 1ZM 249 0L 249 250L 251 250L 251 0L 249 0ZM 250 249L 0 249L 0 251L 250 251L 250 249ZM 1 250L 1 0L -1 0L -1 250L 1 250Z"/><path id="path2_fill" d="M 0 0L 248 0L 248 140.625L 0 140.625L 0 0Z"/><path id="path3_fill" d="M 2.11523 7.79297L 2.11523 11.1328L 0.990234 11.1328L 0.990234 2.60156L 4.13672 2.60156C 5.07031 2.60156 5.80078 2.83984 6.32812 3.31641C 6.85938 3.79297 7.125 4.42383 7.125 5.20898C 7.125 6.03711 6.86523 6.67578 6.3457 7.125C 5.83008 7.57031 5.08984 7.79297 4.125 7.79297L 2.11523 7.79297ZM 2.11523 6.87305L 4.13672 6.87305C 4.73828 6.87305 5.19922 6.73242 5.51953 6.45117C 5.83984 6.16602 6 5.75586 6 5.2207C 6 4.71289 5.83984 4.30664 5.51953 4.00195C 5.19922 3.69727 4.75977 3.53906 4.20117 3.52734L 2.11523 3.52734L 2.11523 6.87305ZM 11.4551 5.76562C 11.291 5.73828 11.1133 5.72461 10.9219 5.72461C 10.2109 5.72461 9.72852 6.02734 9.47461 6.63281L 9.47461 11.1328L 8.39062 11.1328L 8.39062 4.79297L 9.44531 4.79297L 9.46289 5.52539C 9.81836 4.95898 10.3223 4.67578 10.9746 4.67578C 11.1855 4.67578 11.3457 4.70312 11.4551 4.75781L 11.4551 5.76562ZM 14.9824 11.25C 14.123 11.25 13.4238 10.9688 12.8848 10.4062C 12.3457 9.83984 12.0762 9.08398 12.0762 8.13867L 12.0762 7.93945C 12.0762 7.31055 12.1953 6.75 12.4336 6.25781C 12.6758 5.76172 13.0117 5.375 13.4414 5.09766C 13.875 4.81641 14.3438 4.67578 14.8477 4.67578C 15.6719 4.67578 16.3125 4.94727 16.7695 5.49023C 17.2266 6.0332 17.4551 6.81055 17.4551 7.82227L 17.4551 8.27344L 13.1602 8.27344C 13.1758 8.89844 13.3574 9.4043 13.7051 9.79102C 14.0566 10.1738 14.502 10.3652 15.041 10.3652C 15.4238 10.3652 15.748 10.2871 16.0137 10.1309C 16.2793 9.97461 16.5117 9.76758 16.7109 9.50977L 17.373 10.0254C 16.8418 10.8418 16.0449 11.25 14.9824 11.25ZM 14.8477 5.56641C 14.4102 5.56641 14.043 5.72656 13.7461 6.04688C 13.4492 6.36328 13.2656 6.80859 13.1953 7.38281L 16.3711 7.38281L 16.3711 7.30078C 16.3398 6.75 16.1914 6.32422 15.9258 6.02344C 15.6602 5.71875 15.3008 5.56641 14.8477 5.56641ZM 22.4062 9.45117C 22.4062 9.1582 22.2949 8.93164 22.0723 8.77148C 21.8535 8.60742 21.4688 8.4668 20.918 8.34961C 20.3711 8.23242 19.9355 8.0918 19.6113 7.92773C 19.291 7.76367 19.0527 7.56836 18.8965 7.3418C 18.7441 7.11523 18.668 6.8457 18.668 6.5332C 18.668 6.01367 18.8867 5.57422 19.3242 5.21484C 19.7656 4.85547 20.3281 4.67578 21.0117 4.67578C 21.7305 4.67578 22.3125 4.86133 22.7578 5.23242C 23.207 5.60352 23.4316 6.07812 23.4316 6.65625L 22.3418 6.65625C 22.3418 6.35938 22.2148 6.10352 21.9609 5.88867C 21.7109 5.67383 21.3945 5.56641 21.0117 5.56641C 20.6172 5.56641 20.3086 5.65234 20.0859 5.82422C 19.8633 5.99609 19.752 6.2207 19.752 6.49805C 19.752 6.75977 19.8555 6.95703 20.0625 7.08984C 20.2695 7.22266 20.6426 7.34961 21.1816 7.4707C 21.7246 7.5918 22.1641 7.73633 22.5 7.9043C 22.8359 8.07227 23.084 8.27539 23.2441 8.51367C 23.4082 8.74805 23.4902 9.03516 23.4902 9.375C 23.4902 9.94141 23.2637 10.3965 22.8105 10.7402C 22.3574 11.0801 21.7695 11.25 21.0469 11.25C 20.5391 11.25 20.0898 11.1602 19.6992 10.9805C 19.3086 10.8008 19.002 10.5508 18.7793 10.2305C 18.5605 9.90625 18.4512 9.55664 18.4512 9.18164L 19.5352 9.18164C 19.5547 9.54492 19.6992 9.83398 19.9688 10.0488C 20.2422 10.2598 20.6016 10.3652 21.0469 10.3652C 21.457 10.3652 21.7852 10.2832 22.0312 10.1191C 22.2812 9.95117 22.4062 9.72852 22.4062 9.45117ZM 27.5332 11.25C 26.6738 11.25 25.9746 10.9688 25.4355 10.4062C 24.8965 9.83984 24.627 9.08398 24.627 8.13867L 24.627 7.93945C 24.627 7.31055 24.7461 6.75 24.9844 6.25781C 25.2266 5.76172 25.5625 5.375 25.9922 5.09766C 26.4258 4.81641 26.8945 4.67578 27.3984 4.67578C 28.2227 4.67578 28.8633 4.94727 29.3203 5.49023C 29.7773 6.0332 30.0059 6.81055 30.0059 7.82227L 30.0059 8.27344L 25.7109 8.27344C 25.7266 8.89844 25.9082 9.4043 26.2559 9.79102C 26.6074 10.1738 27.0527 10.3652 27.5918 10.3652C 27.9746 10.3652 28.2988 10.2871 28.5645 10.1309C 28.8301 9.97461 29.0625 9.76758 29.2617 9.50977L 29.9238 10.0254C 29.3926 10.8418 28.5957 11.25 27.5332 11.25ZM 27.3984 5.56641C 26.9609 5.56641 26.5938 5.72656 26.2969 6.04688C 26 6.36328 25.8164 6.80859 25.7461 7.38281L 28.9219 7.38281L 28.9219 7.30078C 28.8906 6.75 28.7422 6.32422 28.4766 6.02344C 28.2109 5.71875 27.8516 5.56641 27.3984 5.56641ZM 32.291 4.79297L 32.3262 5.58984C 32.8105 4.98047 33.4434 4.67578 34.2246 4.67578C 35.5645 4.67578 36.2402 5.43164 36.252 6.94336L 36.252 11.1328L 35.168 11.1328L 35.168 6.9375C 35.1641 6.48047 35.0586 6.14258 34.8516 5.92383C 34.6484 5.70508 34.3301 5.5957 33.8965 5.5957C 33.5449 5.5957 33.2363 5.68945 32.9707 5.87695C 32.7051 6.06445 32.498 6.31055 32.3496 6.61523L 32.3496 11.1328L 31.2656 11.1328L 31.2656 4.79297L 32.291 4.79297ZM 39.3574 3.25781L 39.3574 4.79297L 40.541 4.79297L 40.541 5.63086L 39.3574 5.63086L 39.3574 9.5625C 39.3574 9.81641 39.4102 10.0078 39.5156 10.1367C 39.6211 10.2617 39.8008 10.3242 40.0547 10.3242C 40.1797 10.3242 40.3516 10.3008 40.5703 10.2539L 40.5703 11.1328C 40.2852 11.2109 40.0078 11.25 39.7383 11.25C 39.2539 11.25 38.8887 11.1035 38.6426 10.8105C 38.3965 10.5176 38.2734 10.1016 38.2734 9.5625L 38.2734 5.63086L 37.1191 5.63086L 37.1191 4.79297L 38.2734 4.79297L 38.2734 3.25781L 39.3574 3.25781ZM 45.7266 11.1328C 45.6641 11.0078 45.6133 10.7852 45.5742 10.4648C 45.0703 10.9883 44.4688 11.25 43.7695 11.25C 43.1445 11.25 42.6309 11.0742 42.2285 10.7227C 41.8301 10.3672 41.6309 9.91797 41.6309 9.375C 41.6309 8.71484 41.8809 8.20312 42.3809 7.83984C 42.8848 7.47266 43.5918 7.28906 44.502 7.28906L 45.5566 7.28906L 45.5566 6.79102C 45.5566 6.41211 45.4434 6.11133 45.2168 5.88867C 44.9902 5.66211 44.6562 5.54883 44.2148 5.54883C 43.8281 5.54883 43.5039 5.64648 43.2422 5.8418C 42.9805 6.03711 42.8496 6.27344 42.8496 6.55078L 41.7598 6.55078C 41.7598 6.23438 41.8711 5.92969 42.0938 5.63672C 42.3203 5.33984 42.625 5.10547 43.0078 4.93359C 43.3945 4.76172 43.8184 4.67578 44.2793 4.67578C 45.0098 4.67578 45.582 4.85938 45.9961 5.22656C 46.4102 5.58984 46.625 6.0918 46.6406 6.73242L 46.6406 9.65039C 46.6406 10.2324 46.7148 10.6953 46.8633 11.0391L 46.8633 11.1328L 45.7266 11.1328ZM 43.9277 10.3066C 44.2676 10.3066 44.5898 10.2188 44.8945 10.043C 45.1992 9.86719 45.4199 9.63867 45.5566 9.35742L 45.5566 8.05664L 44.707 8.05664C 43.3789 8.05664 42.7148 8.44531 42.7148 9.22266C 42.7148 9.5625 42.8281 9.82812 43.0547 10.0195C 43.2812 10.2109 43.5723 10.3066 43.9277 10.3066ZM 49.8105 3.25781L 49.8105 4.79297L 50.9941 4.79297L 50.9941 5.63086L 49.8105 5.63086L 49.8105 9.5625C 49.8105 9.81641 49.8633 10.0078 49.9688 10.1367C 50.0742 10.2617 50.2539 10.3242 50.5078 10.3242C 50.6328 10.3242 50.8047 10.3008 51.0234 10.2539L 51.0234 11.1328C 50.7383 11.2109 50.4609 11.25 50.1914 11.25C 49.707 11.25 49.3418 11.1035 49.0957 10.8105C 48.8496 10.5176 48.7266 10.1016 48.7266 9.5625L 48.7266 5.63086L 47.5723 5.63086L 47.5723 4.79297L 48.7266 4.79297L 48.7266 3.25781L 49.8105 3.25781ZM 53.4434 11.1328L 52.3594 11.1328L 52.3594 4.79297L 53.4434 4.79297L 53.4434 11.1328ZM 52.2715 3.11133C 52.2715 2.93555 52.3242 2.78711 52.4297 2.66602C 52.5391 2.54492 52.6992 2.48438 52.9102 2.48438C 53.1211 2.48438 53.2812 2.54492 53.3906 2.66602C 53.5 2.78711 53.5547 2.93555 53.5547 3.11133C 53.5547 3.28711 53.5 3.43359 53.3906 3.55078C 53.2812 3.66797 53.1211 3.72656 52.9102 3.72656C 52.6992 3.72656 52.5391 3.66797 52.4297 3.55078C 52.3242 3.43359 52.2715 3.28711 52.2715 3.11133ZM 54.8965 7.9043C 54.8965 7.2832 55.0176 6.72461 55.2598 6.22852C 55.5059 5.73242 55.8457 5.34961 56.2793 5.08008C 56.7168 4.81055 57.2148 4.67578 57.7734 4.67578C 58.6367 4.67578 59.334 4.97461 59.8652 5.57227C 60.4004 6.16992 60.668 6.96484 60.668 7.95703L 60.668 8.0332C 60.668 8.65039 60.5488 9.20508 60.3105 9.69727C 60.0762 10.1855 59.7383 10.5664 59.2969 10.8398C 58.8594 11.1133 58.3555 11.25 57.7852 11.25C 56.9258 11.25 56.2285 10.9512 55.6934 10.3535C 55.1621 9.75586 54.8965 8.96484 54.8965 7.98047L 54.8965 7.9043ZM 55.9863 8.0332C 55.9863 8.73633 56.1484 9.30078 56.4727 9.72656C 56.8008 10.1523 57.2383 10.3652 57.7852 10.3652C 58.3359 10.3652 58.7734 10.1504 59.0977 9.7207C 59.4219 9.28711 59.584 8.68164 59.584 7.9043C 59.584 7.20898 59.418 6.64648 59.0859 6.2168C 58.7578 5.7832 58.3203 5.56641 57.7734 5.56641C 57.2383 5.56641 56.8066 5.7793 56.4785 6.20508C 56.1504 6.63086 55.9863 7.24023 55.9863 8.0332ZM 63.0527 4.79297L 63.0879 5.58984C 63.5723 4.98047 64.2051 4.67578 64.9863 4.67578C 66.3262 4.67578 67.002 5.43164 67.0137 6.94336L 67.0137 11.1328L 65.9297 11.1328L 65.9297 6.9375C 65.9258 6.48047 65.8203 6.14258 65.6133 5.92383C 65.4102 5.70508 65.0918 5.5957 64.6582 5.5957C 64.3066 5.5957 63.998 5.68945 63.7324 5.87695C 63.4668 6.06445 63.2598 6.31055 63.1113 6.61523L 63.1113 11.1328L 62.0273 11.1328L 62.0273 4.79297L 63.0527 4.79297Z"/><path id="path4_fill" d="M 6.88477 3.52734L 4.14258 3.52734L 4.14258 11.1328L 3.02344 11.1328L 3.02344 3.52734L 0.287109 3.52734L 0.287109 2.60156L 6.88477 2.60156L 6.88477 3.52734ZM 9.1582 11.1328L 8.07422 11.1328L 8.07422 4.79297L 9.1582 4.79297L 9.1582 11.1328ZM 7.98633 3.11133C 7.98633 2.93555 8.03906 2.78711 8.14453 2.66602C 8.25391 2.54492 8.41406 2.48438 8.625 2.48438C 8.83594 2.48438 8.99609 2.54492 9.10547 2.66602C 9.21484 2.78711 9.26953 2.93555 9.26953 3.11133C 9.26953 3.28711 9.21484 3.43359 9.10547 3.55078C 8.99609 3.66797 8.83594 3.72656 8.625 3.72656C 8.41406 3.72656 8.25391 3.66797 8.14453 3.55078C 8.03906 3.43359 7.98633 3.28711 7.98633 3.11133ZM 12.3691 3.25781L 12.3691 4.79297L 13.5527 4.79297L 13.5527 5.63086L 12.3691 5.63086L 12.3691 9.5625C 12.3691 9.81641 12.4219 10.0078 12.5273 10.1367C 12.6328 10.2617 12.8125 10.3242 13.0664 10.3242C 13.1914 10.3242 13.3633 10.3008 13.582 10.2539L 13.582 11.1328C 13.2969 11.2109 13.0195 11.25 12.75 11.25C 12.2656 11.25 11.9004 11.1035 11.6543 10.8105C 11.4082 10.5176 11.2852 10.1016 11.2852 9.5625L 11.2852 5.63086L 10.1309 5.63086L 10.1309 4.79297L 11.2852 4.79297L 11.2852 3.25781L 12.3691 3.25781ZM 16.002 11.1328L 14.918 11.1328L 14.918 4.79297L 16.002 4.79297L 16.002 11.1328ZM 14.8301 3.11133C 14.8301 2.93555 14.8828 2.78711 14.9883 2.66602C 15.0977 2.54492 15.2578 2.48438 15.4688 2.48438C 15.6797 2.48438 15.8398 2.54492 15.9492 2.66602C 16.0586 2.78711 16.1133 2.93555 16.1133 3.11133C 16.1133 3.28711 16.0586 3.43359 15.9492 3.55078C 15.8398 3.66797 15.6797 3.72656 15.4688 3.72656C 15.2578 3.72656 15.0977 3.66797 14.9883 3.55078C 14.8828 3.43359 14.8301 3.28711 14.8301 3.11133ZM 18.9199 11.1328L 17.8359 11.1328L 17.8359 2.13281L 18.9199 2.13281L 18.9199 11.1328ZM 23.291 11.25C 22.4316 11.25 21.7324 10.9688 21.1934 10.4062C 20.6543 9.83984 20.3848 9.08398 20.3848 8.13867L 20.3848 7.93945C 20.3848 7.31055 20.5039 6.75 20.7422 6.25781C 20.9844 5.76172 21.3203 5.375 21.75 5.09766C 22.1836 4.81641 22.6523 4.67578 23.1562 4.67578C 23.9805 4.67578 24.6211 4.94727 25.0781 5.49023C 25.5352 6.0332 25.7637 6.81055 25.7637 7.82227L 25.7637 8.27344L 21.4688 8.27344C 21.4844 8.89844 21.666 9.4043 22.0137 9.79102C 22.3652 10.1738 22.8105 10.3652 23.3496 10.3652C 23.7324 10.3652 24.0566 10.2871 24.3223 10.1309C 24.5879 9.97461 24.8203 9.76758 25.0195 9.50977L 25.6816 10.0254C 25.1504 10.8418 24.3535 11.25 23.291 11.25ZM 23.1562 5.56641C 22.7188 5.56641 22.3516 5.72656 22.0547 6.04688C 21.7578 6.36328 21.5742 6.80859 21.5039 7.38281L 24.6797 7.38281L 24.6797 7.30078C 24.6484 6.75 24.5 6.32422 24.2344 6.02344C 23.9688 5.71875 23.6094 5.56641 23.1562 5.56641ZM 33.4512 11.1328L 32.3613 11.1328L 32.3613 3.9082L 30.1758 4.71094L 30.1758 3.72656L 33.2812 2.56055L 33.4512 2.56055L 33.4512 11.1328Z"/><path id="path5_fill" d="M 6.88477 3.52734L 4.14258 3.52734L 4.14258 11.1328L 3.02344 11.1328L 3.02344 3.52734L 0.287109 3.52734L 0.287109 2.60156L 6.88477 2.60156L 6.88477 3.52734ZM 9.1582 11.1328L 8.07422 11.1328L 8.07422 4.79297L 9.1582 4.79297L 9.1582 11.1328ZM 7.98633 3.11133C 7.98633 2.93555 8.03906 2.78711 8.14453 2.66602C 8.25391 2.54492 8.41406 2.48438 8.625 2.48438C 8.83594 2.48438 8.99609 2.54492 9.10547 2.66602C 9.21484 2.78711 9.26953 2.93555 9.26953 3.11133C 9.26953 3.28711 9.21484 3.43359 9.10547 3.55078C 8.99609 3.66797 8.83594 3.72656 8.625 3.72656C 8.41406 3.72656 8.25391 3.66797 8.14453 3.55078C 8.03906 3.43359 7.98633 3.28711 7.98633 3.11133ZM 12.3691 3.25781L 12.3691 4.79297L 13.5527 4.79297L 13.5527 5.63086L 12.3691 5.63086L 12.3691 9.5625C 12.3691 9.81641 12.4219 10.0078 12.5273 10.1367C 12.6328 10.2617 12.8125 10.3242 13.0664 10.3242C 13.1914 10.3242 13.3633 10.3008 13.582 10.2539L 13.582 11.1328C 13.2969 11.2109 13.0195 11.25 12.75 11.25C 12.2656 11.25 11.9004 11.1035 11.6543 10.8105C 11.4082 10.5176 11.2852 10.1016 11.2852 9.5625L 11.2852 5.63086L 10.1309 5.63086L 10.1309 4.79297L 11.2852 4.79297L 11.2852 3.25781L 12.3691 3.25781ZM 16.002 11.1328L 14.918 11.1328L 14.918 4.79297L 16.002 4.79297L 16.002 11.1328ZM 14.8301 3.11133C 14.8301 2.93555 14.8828 2.78711 14.9883 2.66602C 15.0977 2.54492 15.2578 2.48438 15.4688 2.48438C 15.6797 2.48438 15.8398 2.54492 15.9492 2.66602C 16.0586 2.78711 16.1133 2.93555 16.1133 3.11133C 16.1133 3.28711 16.0586 3.43359 15.9492 3.55078C 15.8398 3.66797 15.6797 3.72656 15.4688 3.72656C 15.2578 3.72656 15.0977 3.66797 14.9883 3.55078C 14.8828 3.43359 14.8301 3.28711 14.8301 3.11133ZM 18.9199 11.1328L 17.8359 11.1328L 17.8359 2.13281L 18.9199 2.13281L 18.9199 11.1328ZM 23.291 11.25C 22.4316 11.25 21.7324 10.9688 21.1934 10.4062C 20.6543 9.83984 20.3848 9.08398 20.3848 8.13867L 20.3848 7.93945C 20.3848 7.31055 20.5039 6.75 20.7422 6.25781C 20.9844 5.76172 21.3203 5.375 21.75 5.09766C 22.1836 4.81641 22.6523 4.67578 23.1562 4.67578C 23.9805 4.67578 24.6211 4.94727 25.0781 5.49023C 25.5352 6.0332 25.7637 6.81055 25.7637 7.82227L 25.7637 8.27344L 21.4688 8.27344C 21.4844 8.89844 21.666 9.4043 22.0137 9.79102C 22.3652 10.1738 22.8105 10.3652 23.3496 10.3652C 23.7324 10.3652 24.0566 10.2871 24.3223 10.1309C 24.5879 9.97461 24.8203 9.76758 25.0195 9.50977L 25.6816 10.0254C 25.1504 10.8418 24.3535 11.25 23.291 11.25ZM 23.1562 5.56641C 22.7188 5.56641 22.3516 5.72656 22.0547 6.04688C 21.7578 6.36328 21.5742 6.80859 21.5039 7.38281L 24.6797 7.38281L 24.6797 7.30078C 24.6484 6.75 24.5 6.32422 24.2344 6.02344C 23.9688 5.71875 23.6094 5.56641 23.1562 5.56641ZM 35.4785 11.1328L 29.8887 11.1328L 29.8887 10.3535L 32.8418 7.07227C 33.2793 6.57617 33.5801 6.17383 33.7441 5.86523C 33.9121 5.55273 33.9961 5.23047 33.9961 4.89844C 33.9961 4.45312 33.8613 4.08789 33.5918 3.80273C 33.3223 3.51758 32.9629 3.375 32.5137 3.375C 31.9746 3.375 31.5547 3.5293 31.2539 3.83789C 30.957 4.14258 30.8086 4.56836 30.8086 5.11523L 29.7246 5.11523C 29.7246 4.33008 29.9766 3.69531 30.4805 3.21094C 30.9883 2.72656 31.666 2.48438 32.5137 2.48438C 33.3066 2.48438 33.9336 2.69336 34.3945 3.11133C 34.8555 3.52539 35.0859 4.07812 35.0859 4.76953C 35.0859 5.60938 34.5508 6.60938 33.4805 7.76953L 31.1953 10.248L 35.4785 10.248L 35.4785 11.1328Z"/><path id="path6_fill" d="M 6.88477 3.52734L 4.14258 3.52734L 4.14258 11.1328L 3.02344 11.1328L 3.02344 3.52734L 0.287109 3.52734L 0.287109 2.60156L 6.88477 2.60156L 6.88477 3.52734ZM 9.1582 11.1328L 8.07422 11.1328L 8.07422 4.79297L 9.1582 4.79297L 9.1582 11.1328ZM 7.98633 3.11133C 7.98633 2.93555 8.03906 2.78711 8.14453 2.66602C 8.25391 2.54492 8.41406 2.48438 8.625 2.48438C 8.83594 2.48438 8.99609 2.54492 9.10547 2.66602C 9.21484 2.78711 9.26953 2.93555 9.26953 3.11133C 9.26953 3.28711 9.21484 3.43359 9.10547 3.55078C 8.99609 3.66797 8.83594 3.72656 8.625 3.72656C 8.41406 3.72656 8.25391 3.66797 8.14453 3.55078C 8.03906 3.43359 7.98633 3.28711 7.98633 3.11133ZM 12.3691 3.25781L 12.3691 4.79297L 13.5527 4.79297L 13.5527 5.63086L 12.3691 5.63086L 12.3691 9.5625C 12.3691 9.81641 12.4219 10.0078 12.5273 10.1367C 12.6328 10.2617 12.8125 10.3242 13.0664 10.3242C 13.1914 10.3242 13.3633 10.3008 13.582 10.2539L 13.582 11.1328C 13.2969 11.2109 13.0195 11.25 12.75 11.25C 12.2656 11.25 11.9004 11.1035 11.6543 10.8105C 11.4082 10.5176 11.2852 10.1016 11.2852 9.5625L 11.2852 5.63086L 10.1309 5.63086L 10.1309 4.79297L 11.2852 4.79297L 11.2852 3.25781L 12.3691 3.25781ZM 16.002 11.1328L 14.918 11.1328L 14.918 4.79297L 16.002 4.79297L 16.002 11.1328ZM 14.8301 3.11133C 14.8301 2.93555 14.8828 2.78711 14.9883 2.66602C 15.0977 2.54492 15.2578 2.48438 15.4688 2.48438C 15.6797 2.48438 15.8398 2.54492 15.9492 2.66602C 16.0586 2.78711 16.1133 2.93555 16.1133 3.11133C 16.1133 3.28711 16.0586 3.43359 15.9492 3.55078C 15.8398 3.66797 15.6797 3.72656 15.4688 3.72656C 15.2578 3.72656 15.0977 3.66797 14.9883 3.55078C 14.8828 3.43359 14.8301 3.28711 14.8301 3.11133ZM 18.9199 11.1328L 17.8359 11.1328L 17.8359 2.13281L 18.9199 2.13281L 18.9199 11.1328ZM 23.291 11.25C 22.4316 11.25 21.7324 10.9688 21.1934 10.4062C 20.6543 9.83984 20.3848 9.08398 20.3848 8.13867L 20.3848 7.93945C 20.3848 7.31055 20.5039 6.75 20.7422 6.25781C 20.9844 5.76172 21.3203 5.375 21.75 5.09766C 22.1836 4.81641 22.6523 4.67578 23.1562 4.67578C 23.9805 4.67578 24.6211 4.94727 25.0781 5.49023C 25.5352 6.0332 25.7637 6.81055 25.7637 7.82227L 25.7637 8.27344L 21.4688 8.27344C 21.4844 8.89844 21.666 9.4043 22.0137 9.79102C 22.3652 10.1738 22.8105 10.3652 23.3496 10.3652C 23.7324 10.3652 24.0566 10.2871 24.3223 10.1309C 24.5879 9.97461 24.8203 9.76758 25.0195 9.50977L 25.6816 10.0254C 25.1504 10.8418 24.3535 11.25 23.291 11.25ZM 23.1562 5.56641C 22.7188 5.56641 22.3516 5.72656 22.0547 6.04688C 21.7578 6.36328 21.5742 6.80859 21.5039 7.38281L 24.6797 7.38281L 24.6797 7.30078C 24.6484 6.75 24.5 6.32422 24.2344 6.02344C 23.9688 5.71875 23.6094 5.56641 23.1562 5.56641ZM 31.4648 6.33984L 32.2793 6.33984C 32.791 6.33203 33.1934 6.19727 33.4863 5.93555C 33.7793 5.67383 33.9258 5.32031 33.9258 4.875C 33.9258 3.875 33.4277 3.375 32.4316 3.375C 31.9629 3.375 31.5879 3.50977 31.3066 3.7793C 31.0293 4.04492 30.8906 4.39844 30.8906 4.83984L 29.8066 4.83984C 29.8066 4.16406 30.0527 3.60352 30.5449 3.1582C 31.041 2.70898 31.6699 2.48438 32.4316 2.48438C 33.2363 2.48438 33.8672 2.69727 34.3242 3.12305C 34.7812 3.54883 35.0098 4.14062 35.0098 4.89844C 35.0098 5.26953 34.8887 5.62891 34.6465 5.97656C 34.4082 6.32422 34.082 6.58398 33.668 6.75586C 34.1367 6.9043 34.498 7.15039 34.752 7.49414C 35.0098 7.83789 35.1387 8.25781 35.1387 8.75391C 35.1387 9.51953 34.8887 10.127 34.3887 10.5762C 33.8887 11.0254 33.2383 11.25 32.4375 11.25C 31.6367 11.25 30.9844 11.0332 30.4805 10.5996C 29.9805 10.166 29.7305 9.59375 29.7305 8.88281L 30.8203 8.88281C 30.8203 9.33203 30.9668 9.69141 31.2598 9.96094C 31.5527 10.2305 31.9453 10.3652 32.4375 10.3652C 32.9609 10.3652 33.3613 10.2285 33.6387 9.95508C 33.916 9.68164 34.0547 9.28906 34.0547 8.77734C 34.0547 8.28125 33.9023 7.90039 33.5977 7.63477C 33.293 7.36914 32.8535 7.23242 32.2793 7.22461L 31.4648 7.22461L 31.4648 6.33984Z"/><path id="path7_fill" d="M 0 0L 75 0L 75 75L 0 75L 0 0Z"/><path id="path8_fill" d="M 0 0L 50 0L 50 50L 0 50L 0 0Z"/><path id="path9_fill" d="M 0 0L 50 0L 50 50L 0 50L 0 0Z"/></defs></svg>