<svg xmlns="http://www.w3.org/2000/svg" width="1920" height="610"><path d="M-11,-188L348,-178L774,-189Z" fill="#ececec" stroke="#ececec" stroke-width="1.51"/><path d="M774,-189L963,-152L1210,-147Z" fill="#dadada" stroke="#dadada" stroke-width="1.51"/><path d="M976,752L648,802L1336,789Z" fill="#dbdbdb" stroke="#dbdbdb" stroke-width="1.51"/><path d="M648,802L534,824L1336,789Z" fill="#dfdfdf" stroke="#dfdfdf" stroke-width="1.51"/><path d="M774,-189L1210,-147L1380,-165Z" fill="#dedede" stroke="#dedede" stroke-width="1.51"/><path d="M1336,789L534,824L1434,796Z" fill="#dfdfdf" stroke="#dfdfdf" stroke-width="1.51"/><path d="M1434,796L534,824L1826,808Z" fill="#e5e5e5" stroke="#e5e5e5" stroke-width="1.51"/><path d="M1561,772L1434,796L1826,808Z" fill="#eeeeee" stroke="#eeeeee" stroke-width="1.51"/><path d="M774,-189L1380,-165L1906,-174Z" fill="#e6e6e6" stroke="#e6e6e6" stroke-width="1.51"/><path d="M1380,-165L1734,-137L1906,-174Z" fill="#eeeeee" stroke="#eeeeee" stroke-width="1.51"/><path d="M2005,264L1955,493L2082,465Z" fill="#e0e0e0" stroke="#e0e0e0" stroke-width="1.51"/><path d="M1955,493L1956,609L2082,465Z" fill="#e7e7e7" stroke="#e7e7e7" stroke-width="1.51"/><path d="M2082,465L1956,609L2093,647Z" fill="#ececec" stroke="#ececec" stroke-width="1.51"/><path d="M1906,-174L2008,-91L2108,-18Z" fill="#f3f3f3" stroke="#f3f3f3" stroke-width="1.51"/><path d="M1985,27L2017,97L2108,-18Z" fill="#ececec" stroke="#ececec" stroke-width="1.51"/><path d="M2005,264L2082,465L2114,413Z" fill="#e0e0e0" stroke="#e0e0e0" stroke-width="1.51"/><path d="M2108,-18L2017,97L2114,413Z" fill="#e4e4e4" stroke="#e4e4e4" stroke-width="1.51"/><path d="M2017,97L2005,264L2114,413Z" fill="#dddddd" stroke="#dddddd" stroke-width="1.51"/><path d="M2082,465L2093,647L2114,413Z" fill="#e9e9e9" stroke="#e9e9e9" stroke-width="1.51"/><path d="M1881,339L1955,493L2005,264Z" fill="#dbdbdb" stroke="#dbdbdb" stroke-width="1.51"/><path d="M2008,-91L1985,27L2108,-18Z" fill="#efefef" stroke="#efefef" stroke-width="1.51"/><path d="M1956,609L2037,755L2093,647Z" fill="#f2f2f2" stroke="#f2f2f2" stroke-width="1.51"/><path d="M1921,131L2005,264L2017,97Z" fill="#e1e1e1" stroke="#e1e1e1" stroke-width="1.51"/><path d="M1956,609L1933,799L2037,755Z" fill="#f3f3f3" stroke="#f3f3f3" stroke-width="1.51"/><path d="M1921,131L1874,178L2005,264Z" fill="#dedede" stroke="#dedede" stroke-width="1.51"/><path d="M1825,-85L1985,27L2008,-91Z" fill="#eeeeee" stroke="#eeeeee" stroke-width="1.51"/><path d="M1985,27L1921,131L2017,97Z" fill="#e7e7e7" stroke="#e7e7e7" stroke-width="1.51"/><path d="M1869,-142L1825,-85L2008,-91Z" fill="#f1f1f1" stroke="#f1f1f1" stroke-width="1.51"/><path d="M1906,-174L1869,-142L2008,-91Z" fill="#f4f4f4" stroke="#f4f4f4" stroke-width="1.51"/><path d="M1874,178L1881,339L2005,264Z" fill="#dadada" stroke="#dadada" stroke-width="1.51"/><path d="M1881,339L1832,392L1955,493Z" fill="#dcdcdc" stroke="#dcdcdc" stroke-width="1.51"/><path d="M1765,667L1933,799L1956,609Z" fill="#efefef" stroke="#efefef" stroke-width="1.51"/><path d="M1825,-85L1850,64L1985,27Z" fill="#eaeaea" stroke="#eaeaea" stroke-width="1.51"/><path d="M1850,64L1921,131L1985,27Z" fill="#e6e6e6" stroke="#e6e6e6" stroke-width="1.51"/><path d="M1380,-165L1573,-107L1734,-137Z" fill="#e9e9e9" stroke="#e9e9e9" stroke-width="1.51"/><path d="M1765,667L1826,808L1933,799Z" fill="#f2f2f2" stroke="#f2f2f2" stroke-width="1.51"/><path d="M1955,493L1741,516L1956,609Z" fill="#e5e5e5" stroke="#e5e5e5" stroke-width="1.51"/><path d="M1741,516L1765,667L1956,609Z" fill="#e7e7e7" stroke="#e7e7e7" stroke-width="1.51"/><path d="M1832,392L1741,516L1955,493Z" fill="#dfdfdf" stroke="#dfdfdf" stroke-width="1.51"/><path d="M1874,178L1788,227L1881,339Z" fill="#d8d8d8" stroke="#d8d8d8" stroke-width="1.51"/><path d="M1734,-137L1869,-142L1906,-174Z" fill="#f2f2f2" stroke="#f2f2f2" stroke-width="1.51"/><path d="M1850,64L1874,178L1921,131Z" fill="#e1e1e1" stroke="#e1e1e1" stroke-width="1.51"/><path d="M1765,667L1732,749L1826,808Z" fill="#efefef" stroke="#efefef" stroke-width="1.51"/><path d="M1850,64L1788,227L1874,178Z" fill="#dedede" stroke="#dedede" stroke-width="1.51"/><path d="M1725,312L1832,392L1881,339Z" fill="#d6d6d6" stroke="#d6d6d6" stroke-width="1.51"/><path d="M1788,227L1725,312L1881,339Z" fill="#d4d4d4" stroke="#d4d4d4" stroke-width="1.51"/><path d="M1732,749L1561,772L1826,808Z" fill="#efefef" stroke="#efefef" stroke-width="1.51"/><path d="M1825,-85L1659,-30L1850,64Z" fill="#e7e7e7" stroke="#e7e7e7" stroke-width="1.51"/><path d="M1734,-137L1825,-85L1869,-142Z" fill="#efefef" stroke="#efefef" stroke-width="1.51"/><path d="M1635,58L1788,227L1850,64Z" fill="#dedede" stroke="#dedede" stroke-width="1.51"/><path d="M1659,-30L1635,58L1850,64Z" fill="#e3e3e3" stroke="#e3e3e3" stroke-width="1.51"/><path d="M1734,-137L1659,-30L1825,-85Z" fill="#ebebeb" stroke="#ebebeb" stroke-width="1.51"/><path d="M1675,439L1741,516L1832,392Z" fill="#dbdbdb" stroke="#dbdbdb" stroke-width="1.51"/><path d="M1725,312L1675,439L1832,392Z" fill="#d6d6d6" stroke="#d6d6d6" stroke-width="1.51"/><path d="M1741,516L1674,566L1765,667Z" fill="#e3e3e3" stroke="#e3e3e3" stroke-width="1.51"/><path d="M1663,254L1725,312L1788,227Z" fill="#d3d3d3" stroke="#d3d3d3" stroke-width="1.51"/><path d="M1635,58L1663,254L1788,227Z" fill="#d8d8d8" stroke="#d8d8d8" stroke-width="1.51"/><path d="M1566,677L1732,749L1765,667Z" fill="#e9e9e9" stroke="#e9e9e9" stroke-width="1.51"/><path d="M1674,566L1566,677L1765,667Z" fill="#e5e5e5" stroke="#e5e5e5" stroke-width="1.51"/><path d="M1635,58L1594,226L1663,254Z" fill="#d6d6d6" stroke="#d6d6d6" stroke-width="1.51"/><path d="M1675,439L1674,566L1741,516Z" fill="#dddddd" stroke="#dddddd" stroke-width="1.51"/><path d="M1566,677L1561,772L1732,749Z" fill="#eaeaea" stroke="#eaeaea" stroke-width="1.51"/><path d="M1573,-107L1659,-30L1734,-137Z" fill="#e9e9e9" stroke="#e9e9e9" stroke-width="1.51"/><path d="M1663,254L1675,439L1725,312Z" fill="#d2d2d2" stroke="#d2d2d2" stroke-width="1.51"/><path d="M1532,83L1594,226L1635,58Z" fill="#d9d9d9" stroke="#d9d9d9" stroke-width="1.51"/><path d="M1594,226L1515,416L1663,254Z" fill="#cecece" stroke="#cecece" stroke-width="1.51"/><path d="M1565,498L1566,677L1674,566Z" fill="#dfdfdf" stroke="#dfdfdf" stroke-width="1.51"/><path d="M1663,254L1515,416L1675,439Z" fill="#d2d2d2" stroke="#d2d2d2" stroke-width="1.51"/><path d="M1515,416L1565,498L1675,439Z" fill="#d6d6d6" stroke="#d6d6d6" stroke-width="1.51"/><path d="M1565,498L1674,566L1675,439Z" fill="#dbdbdb" stroke="#dbdbdb" stroke-width="1.51"/><path d="M1464,360L1515,416L1594,226Z" fill="#cdcdcd" stroke="#cdcdcd" stroke-width="1.51"/><path d="M1521,37L1635,58L1659,-30Z" fill="#e0e0e0" stroke="#e0e0e0" stroke-width="1.51"/><path d="M1573,-107L1521,37L1659,-30Z" fill="#e3e3e3" stroke="#e3e3e3" stroke-width="1.51"/><path d="M1521,37L1532,83L1635,58Z" fill="#dcdcdc" stroke="#dcdcdc" stroke-width="1.51"/><path d="M1565,498L1406,604L1566,677Z" fill="#dedede" stroke="#dedede" stroke-width="1.51"/><path d="M1457,250L1464,360L1594,226Z" fill="#cccccc" stroke="#cccccc" stroke-width="1.51"/><path d="M1532,83L1457,250L1594,226Z" fill="#d3d3d3" stroke="#d3d3d3" stroke-width="1.51"/><path d="M1403,524L1406,604L1565,498Z" fill="#d9d9d9" stroke="#d9d9d9" stroke-width="1.51"/><path d="M1434,796L1561,772L1566,677Z" fill="#e8e8e8" stroke="#e8e8e8" stroke-width="1.51"/><path d="M1407,-57L1521,37L1573,-107Z" fill="#e1e1e1" stroke="#e1e1e1" stroke-width="1.51"/><path d="M1380,-165L1407,-57L1573,-107Z" fill="#e4e4e4" stroke="#e4e4e4" stroke-width="1.51"/><path d="M1406,604L1434,796L1566,677Z" fill="#e3e3e3" stroke="#e3e3e3" stroke-width="1.51"/><path d="M1515,416L1403,524L1565,498Z" fill="#d6d6d6" stroke="#d6d6d6" stroke-width="1.51"/><path d="M1369,159L1457,250L1532,83Z" fill="#d2d2d2" stroke="#d2d2d2" stroke-width="1.51"/><path d="M1521,37L1369,159L1532,83Z" fill="#d8d8d8" stroke="#d8d8d8" stroke-width="1.51"/><path d="M1407,-57L1369,159L1521,37Z" fill="#d9d9d9" stroke="#d9d9d9" stroke-width="1.51"/><path d="M1464,360L1403,524L1515,416Z" fill="#d2d2d2" stroke="#d2d2d2" stroke-width="1.51"/><path d="M822,752L648,802L976,752Z" fill="#dddddd" stroke="#dddddd" stroke-width="1.51"/><path d="M1148,725L976,752L1336,789Z" fill="#dedede" stroke="#dedede" stroke-width="1.51"/><path d="M1324,615L1336,789L1406,604Z" fill="#dedede" stroke="#dedede" stroke-width="1.51"/><path d="M1291,-35L1369,159L1407,-57Z" fill="#d9d9d9" stroke="#d9d9d9" stroke-width="1.51"/><path d="M1406,604L1336,789L1434,796Z" fill="#e3e3e3" stroke="#e3e3e3" stroke-width="1.51"/><path d="M1369,159L1348,224L1457,250Z" fill="#cdcdcd" stroke="#cdcdcd" stroke-width="1.51"/><path d="M1256,490L1403,524L1464,360Z" fill="#d1d1d1" stroke="#d1d1d1" stroke-width="1.51"/><path d="M1237,319L1256,490L1464,360Z" fill="#cbcbcb" stroke="#cbcbcb" stroke-width="1.51"/><path d="M1457,250L1348,224L1464,360Z" fill="#cacaca" stroke="#cacaca" stroke-width="1.51"/><path d="M1348,224L1237,319L1464,360Z" fill="#c7c7c7" stroke="#c7c7c7" stroke-width="1.51"/><path d="M348,-178L614,-160L774,-189Z" fill="#e5e5e5" stroke="#e5e5e5" stroke-width="1.51"/><path d="M1291,-35L1223,126L1369,159Z" fill="#d3d3d3" stroke="#d3d3d3" stroke-width="1.51"/><path d="M1403,524L1324,615L1406,604Z" fill="#d9d9d9" stroke="#d9d9d9" stroke-width="1.51"/><path d="M1380,-165L1291,-35L1407,-57Z" fill="#e0e0e0" stroke="#e0e0e0" stroke-width="1.51"/><path d="M1256,490L1324,615L1403,524Z" fill="#d5d5d5" stroke="#d5d5d5" stroke-width="1.51"/><path d="M1210,-147L1233,-127L1380,-165Z" fill="#e1e1e1" stroke="#e1e1e1" stroke-width="1.51"/><path d="M1233,-127L1291,-35L1380,-165Z" fill="#e0e0e0" stroke="#e0e0e0" stroke-width="1.51"/><path d="M1324,615L1148,725L1336,789Z" fill="#dedede" stroke="#dedede" stroke-width="1.51"/><path d="M1223,126L1348,224L1369,159Z" fill="#cecece" stroke="#cecece" stroke-width="1.51"/><path d="M1201,588L1148,725L1324,615Z" fill="#d8d8d8" stroke="#d8d8d8" stroke-width="1.51"/><path d="M1223,126L1237,319L1348,224Z" fill="#c9c9c9" stroke="#c9c9c9" stroke-width="1.51"/><path d="M1256,490L1201,588L1324,615Z" fill="#d4d4d4" stroke="#d4d4d4" stroke-width="1.51"/><path d="M1237,319L1176,451L1256,490Z" fill="#cacaca" stroke="#cacaca" stroke-width="1.51"/><path d="M1223,126L1136,263L1237,319Z" fill="#c6c6c6" stroke="#c6c6c6" stroke-width="1.51"/><path d="M1233,-127L1121,-10L1291,-35Z" fill="#dadada" stroke="#dadada" stroke-width="1.51"/><path d="M1121,-10L1223,126L1291,-35Z" fill="#d4d4d4" stroke="#d4d4d4" stroke-width="1.51"/><path d="M1121,-10L1139,111L1223,126Z" fill="#d0d0d0" stroke="#d0d0d0" stroke-width="1.51"/><path d="M1135,309L1176,451L1237,319Z" fill="#c5c5c5" stroke="#c5c5c5" stroke-width="1.51"/><path d="M1176,451L1201,588L1256,490Z" fill="#cfcfcf" stroke="#cfcfcf" stroke-width="1.51"/><path d="M917,744L822,752L976,752Z" fill="#d9d9d9" stroke="#d9d9d9" stroke-width="1.51"/><path d="M1139,111L1136,263L1223,126Z" fill="#cacaca" stroke="#cacaca" stroke-width="1.51"/><path d="M1210,-147L1121,-10L1233,-127Z" fill="#dbdbdb" stroke="#dbdbdb" stroke-width="1.51"/><path d="M1136,263L1135,309L1237,319Z" fill="#c1c1c1" stroke="#c1c1c1" stroke-width="1.51"/><path d="M1135,309L1081,358L1176,451Z" fill="#c4c4c4" stroke="#c4c4c4" stroke-width="1.51"/><path d="M1064,-51L1121,-10L1210,-147Z" fill="#d8d8d8" stroke="#d8d8d8" stroke-width="1.51"/><path d="M1072,150L1136,263L1139,111Z" fill="#c8c8c8" stroke="#c8c8c8" stroke-width="1.51"/><path d="M1176,451L1008,552L1201,588Z" fill="#cecece" stroke="#cecece" stroke-width="1.51"/><path d="M963,-152L1064,-51L1210,-147Z" fill="#dadada" stroke="#dadada" stroke-width="1.51"/><path d="M993,671L1148,725L1201,588Z" fill="#d6d6d6" stroke="#d6d6d6" stroke-width="1.51"/><path d="M1008,552L993,671L1201,588Z" fill="#d1d1d1" stroke="#d1d1d1" stroke-width="1.51"/><path d="M1081,358L1008,552L1176,451Z" fill="#c8c8c8" stroke="#c8c8c8" stroke-width="1.51"/><path d="M1121,-10L1072,150L1139,111Z" fill="#cecece" stroke="#cecece" stroke-width="1.51"/><path d="M993,671L976,752L1148,725Z" fill="#d8d8d8" stroke="#d8d8d8" stroke-width="1.51"/><path d="M1064,-51L1072,150L1121,-10Z" fill="#d0d0d0" stroke="#d0d0d0" stroke-width="1.51"/><path d="M998,287L1135,309L1136,263Z" fill="#bfbfbf" stroke="#bfbfbf" stroke-width="1.51"/><path d="M1072,150L998,287L1136,263Z" fill="#c2c2c2" stroke="#c2c2c2" stroke-width="1.51"/><path d="M998,287L1081,358L1135,309Z" fill="#bfbfbf" stroke="#bfbfbf" stroke-width="1.51"/><path d="M1064,-51L908,74L1072,150Z" fill="#cccccc" stroke="#cccccc" stroke-width="1.51"/><path d="M895,425L897,467L1008,552Z" fill="#c7c7c7" stroke="#c7c7c7" stroke-width="1.51"/><path d="M882,-4L908,74L1064,-51Z" fill="#cecece" stroke="#cecece" stroke-width="1.51"/><path d="M890,183L998,287L1072,150Z" fill="#c2c2c2" stroke="#c2c2c2" stroke-width="1.51"/><path d="M895,425L1008,552L1081,358Z" fill="#c5c5c5" stroke="#c5c5c5" stroke-width="1.51"/><path d="M998,287L895,425L1081,358Z" fill="#bfbfbf" stroke="#bfbfbf" stroke-width="1.51"/><path d="M908,74L890,183L1072,150Z" fill="#c6c6c6" stroke="#c6c6c6" stroke-width="1.51"/><path d="M963,-152L904,-129L1064,-51Z" fill="#d6d6d6" stroke="#d6d6d6" stroke-width="1.51"/><path d="M904,-129L882,-4L1064,-51Z" fill="#d3d3d3" stroke="#d3d3d3" stroke-width="1.51"/><path d="M-11,-188L256,-166L348,-178Z" fill="#f0f0f0" stroke="#f0f0f0" stroke-width="1.51"/><path d="M774,-189L904,-129L963,-152Z" fill="#dbdbdb" stroke="#dbdbdb" stroke-width="1.51"/><path d="M828,371L895,425L998,287Z" fill="#c0c0c0" stroke="#c0c0c0" stroke-width="1.51"/><path d="M819,630L993,671L1008,552Z" fill="#d0d0d0" stroke="#d0d0d0" stroke-width="1.51"/><path d="M897,467L819,630L1008,552Z" fill="#cccccc" stroke="#cccccc" stroke-width="1.51"/><path d="M819,630L837,686L993,671Z" fill="#d4d4d4" stroke="#d4d4d4" stroke-width="1.51"/><path d="M917,744L976,752L993,671Z" fill="#d6d6d6" stroke="#d6d6d6" stroke-width="1.51"/><path d="M890,183L798,286L998,287Z" fill="#c0c0c0" stroke="#c0c0c0" stroke-width="1.51"/><path d="M798,286L828,371L998,287Z" fill="#bebebe" stroke="#bebebe" stroke-width="1.51"/><path d="M837,686L917,744L993,671Z" fill="#d6d6d6" stroke="#d6d6d6" stroke-width="1.51"/><path d="M812,-70L882,-4L904,-129Z" fill="#d6d6d6" stroke="#d6d6d6" stroke-width="1.51"/><path d="M766,46L890,183L908,74Z" fill="#cbcbcb" stroke="#cbcbcb" stroke-width="1.51"/><path d="M837,686L822,752L917,744Z" fill="#d9d9d9" stroke="#d9d9d9" stroke-width="1.51"/><path d="M703,449L819,630L897,467Z" fill="#cdcdcd" stroke="#cdcdcd" stroke-width="1.51"/><path d="M882,-4L766,46L908,74Z" fill="#cfcfcf" stroke="#cfcfcf" stroke-width="1.51"/><path d="M774,-189L812,-70L904,-129Z" fill="#dbdbdb" stroke="#dbdbdb" stroke-width="1.51"/><path d="M703,449L677,547L819,630Z" fill="#d1d1d1" stroke="#d1d1d1" stroke-width="1.51"/><path d="M895,425L828,371L897,467Z" fill="#c5c5c5" stroke="#c5c5c5" stroke-width="1.51"/><path d="M828,371L703,449L897,467Z" fill="#c7c7c7" stroke="#c7c7c7" stroke-width="1.51"/><path d="M766,46L798,286L890,183Z" fill="#c7c7c7" stroke="#c7c7c7" stroke-width="1.51"/><path d="M812,-70L766,46L882,-4Z" fill="#d3d3d3" stroke="#d3d3d3" stroke-width="1.51"/><path d="M666,45L607,255L766,46Z" fill="#cfcfcf" stroke="#cfcfcf" stroke-width="1.51"/><path d="M766,46L607,255L798,286Z" fill="#c9c9c9" stroke="#c9c9c9" stroke-width="1.51"/><path d="M642,633L822,752L837,686Z" fill="#d9d9d9" stroke="#d9d9d9" stroke-width="1.51"/><path d="M819,630L642,633L837,686Z" fill="#d7d7d7" stroke="#d7d7d7" stroke-width="1.51"/><path d="M642,633L648,802L822,752Z" fill="#dedede" stroke="#dedede" stroke-width="1.51"/><path d="M798,286L703,449L828,371Z" fill="#c4c4c4" stroke="#c4c4c4" stroke-width="1.51"/><path d="M677,547L642,633L819,630Z" fill="#d5d5d5" stroke="#d5d5d5" stroke-width="1.51"/><path d="M666,45L766,46L812,-70Z" fill="#d4d4d4" stroke="#d4d4d4" stroke-width="1.51"/><path d="M620,-84L666,45L812,-70Z" fill="#d9d9d9" stroke="#d9d9d9" stroke-width="1.51"/><path d="M774,-189L620,-84L812,-70Z" fill="#dddddd" stroke="#dddddd" stroke-width="1.51"/><path d="M607,255L703,449L798,286Z" fill="#c4c4c4" stroke="#c4c4c4" stroke-width="1.51"/><path d="M607,255L570,360L703,449Z" fill="#c7c7c7" stroke="#c7c7c7" stroke-width="1.51"/><path d="M614,-160L620,-84L774,-189Z" fill="#e1e1e1" stroke="#e1e1e1" stroke-width="1.51"/><path d="M493,97L607,255L666,45Z" fill="#d0d0d0" stroke="#d0d0d0" stroke-width="1.51"/><path d="M570,360L677,547L703,449Z" fill="#cdcdcd" stroke="#cdcdcd" stroke-width="1.51"/><path d="M558,305L570,360L607,255Z" fill="#c6c6c6" stroke="#c6c6c6" stroke-width="1.51"/><path d="M642,633L534,824L648,802Z" fill="#e2e2e2" stroke="#e2e2e2" stroke-width="1.51"/><path d="M620,-84L541,-61L666,45Z" fill="#dbdbdb" stroke="#dbdbdb" stroke-width="1.51"/><path d="M570,360L475,442L677,547Z" fill="#cfcfcf" stroke="#cfcfcf" stroke-width="1.51"/><path d="M435,577L642,633L677,547Z" fill="#d8d8d8" stroke="#d8d8d8" stroke-width="1.51"/><path d="M475,442L435,577L677,547Z" fill="#d5d5d5" stroke="#d5d5d5" stroke-width="1.51"/><path d="M493,97L506,237L607,255Z" fill="#cecece" stroke="#cecece" stroke-width="1.51"/><path d="M348,-178L536,-117L614,-160Z" fill="#e6e6e6" stroke="#e6e6e6" stroke-width="1.51"/><path d="M456,680L534,824L642,633Z" fill="#e1e1e1" stroke="#e1e1e1" stroke-width="1.51"/><path d="M541,-61L493,97L666,45Z" fill="#d8d8d8" stroke="#d8d8d8" stroke-width="1.51"/><path d="M255,736L58,815L534,824Z" fill="#eeeeee" stroke="#eeeeee" stroke-width="1.51"/><path d="M435,577L456,680L642,633Z" fill="#dddddd" stroke="#dddddd" stroke-width="1.51"/><path d="M614,-160L536,-117L620,-84Z" fill="#e1e1e1" stroke="#e1e1e1" stroke-width="1.51"/><path d="M536,-117L541,-61L620,-84Z" fill="#e0e0e0" stroke="#e0e0e0" stroke-width="1.51"/><path d="M506,237L558,305L607,255Z" fill="#c9c9c9" stroke="#c9c9c9" stroke-width="1.51"/><path d="M405,1L493,97L541,-61Z" fill="#dcdcdc" stroke="#dcdcdc" stroke-width="1.51"/><path d="M558,305L409,357L570,360Z" fill="#cacaca" stroke="#cacaca" stroke-width="1.51"/><path d="M409,357L475,442L570,360Z" fill="#cecece" stroke="#cecece" stroke-width="1.51"/><path d="M374,718L255,736L534,824Z" fill="#e9e9e9" stroke="#e9e9e9" stroke-width="1.51"/><path d="M506,237L417,272L558,305Z" fill="#cacaca" stroke="#cacaca" stroke-width="1.51"/><path d="M417,272L409,357L558,305Z" fill="#cacaca" stroke="#cacaca" stroke-width="1.51"/><path d="M456,680L374,718L534,824Z" fill="#e6e6e6" stroke="#e6e6e6" stroke-width="1.51"/><path d="M536,-117L405,1L541,-61Z" fill="#e0e0e0" stroke="#e0e0e0" stroke-width="1.51"/><path d="M348,-178L405,1L536,-117Z" fill="#e5e5e5" stroke="#e5e5e5" stroke-width="1.51"/><path d="M382,64L417,272L493,97Z" fill="#d5d5d5" stroke="#d5d5d5" stroke-width="1.51"/><path d="M405,1L382,64L493,97Z" fill="#dbdbdb" stroke="#dbdbdb" stroke-width="1.51"/><path d="M493,97L417,272L506,237Z" fill="#cfcfcf" stroke="#cfcfcf" stroke-width="1.51"/><path d="M393,437L435,577L475,442Z" fill="#d6d6d6" stroke="#d6d6d6" stroke-width="1.51"/><path d="M409,357L393,437L475,442Z" fill="#d1d1d1" stroke="#d1d1d1" stroke-width="1.51"/><path d="M435,577L374,718L456,680Z" fill="#e1e1e1" stroke="#e1e1e1" stroke-width="1.51"/><path d="M348,-178L250,-15L405,1Z" fill="#e5e5e5" stroke="#e5e5e5" stroke-width="1.51"/><path d="M382,64L195,231L417,272Z" fill="#d5d5d5" stroke="#d5d5d5" stroke-width="1.51"/><path d="M249,617L374,718L435,577Z" fill="#e2e2e2" stroke="#e2e2e2" stroke-width="1.51"/><path d="M268,548L249,617L435,577Z" fill="#dfdfdf" stroke="#dfdfdf" stroke-width="1.51"/><path d="M393,437L268,548L435,577Z" fill="#dadada" stroke="#dadada" stroke-width="1.51"/><path d="M190,108L195,231L382,64Z" fill="#dadada" stroke="#dadada" stroke-width="1.51"/><path d="M253,386L409,357L417,272Z" fill="#cecece" stroke="#cecece" stroke-width="1.51"/><path d="M195,231L253,386L417,272Z" fill="#cfcfcf" stroke="#cfcfcf" stroke-width="1.51"/><path d="M256,-166L250,-15L348,-178Z" fill="#eaeaea" stroke="#eaeaea" stroke-width="1.51"/><path d="M253,386L393,437L409,357Z" fill="#d2d2d2" stroke="#d2d2d2" stroke-width="1.51"/><path d="M250,-15L382,64L405,1Z" fill="#e0e0e0" stroke="#e0e0e0" stroke-width="1.51"/><path d="M253,386L268,548L393,437Z" fill="#d8d8d8" stroke="#d8d8d8" stroke-width="1.51"/><path d="M249,617L255,736L374,718Z" fill="#e7e7e7" stroke="#e7e7e7" stroke-width="1.51"/><path d="M250,-15L190,108L382,64Z" fill="#dfdfdf" stroke="#dfdfdf" stroke-width="1.51"/><path d="M-11,-188L121,-135L256,-166Z" fill="#f2f2f2" stroke="#f2f2f2" stroke-width="1.51"/><path d="M249,617L89,616L255,736Z" fill="#e8e8e8" stroke="#e8e8e8" stroke-width="1.51"/><path d="M121,-135L250,-15L256,-166Z" fill="#ececec" stroke="#ececec" stroke-width="1.51"/><path d="M253,386L169,518L268,548Z" fill="#dbdbdb" stroke="#dbdbdb" stroke-width="1.51"/><path d="M169,518L249,617L268,548Z" fill="#e0e0e0" stroke="#e0e0e0" stroke-width="1.51"/><path d="M121,-135L83,-80L250,-15Z" fill="#ebebeb" stroke="#ebebeb" stroke-width="1.51"/><path d="M195,231L53,359L253,386Z" fill="#d3d3d3" stroke="#d3d3d3" stroke-width="1.51"/><path d="M53,359L169,518L253,386Z" fill="#d9d9d9" stroke="#d9d9d9" stroke-width="1.51"/><path d="M89,616L39,707L255,736Z" fill="#ececec" stroke="#ececec" stroke-width="1.51"/><path d="M39,707L58,815L255,736Z" fill="#f0f0f0" stroke="#f0f0f0" stroke-width="1.51"/><path d="M169,518L89,616L249,617Z" fill="#e4e4e4" stroke="#e4e4e4" stroke-width="1.51"/><path d="M83,-80L190,108L250,-15Z" fill="#e5e5e5" stroke="#e5e5e5" stroke-width="1.51"/><path d="M53,359L6,469L169,518Z" fill="#dedede" stroke="#dedede" stroke-width="1.51"/><path d="M24,29L138,126L190,108Z" fill="#e1e1e1" stroke="#e1e1e1" stroke-width="1.51"/><path d="M83,-80L24,29L190,108Z" fill="#e6e6e6" stroke="#e6e6e6" stroke-width="1.51"/><path d="M138,126L57,202L195,231Z" fill="#dadada" stroke="#dadada" stroke-width="1.51"/><path d="M57,202L53,359L195,231Z" fill="#d6d6d6" stroke="#d6d6d6" stroke-width="1.51"/><path d="M190,108L138,126L195,231Z" fill="#dbdbdb" stroke="#dbdbdb" stroke-width="1.51"/><path d="M6,469L89,616L169,518Z" fill="#e3e3e3" stroke="#e3e3e3" stroke-width="1.51"/><path d="M6,469L16,598L89,616Z" fill="#e6e6e6" stroke="#e6e6e6" stroke-width="1.51"/><path d="M24,29L57,202L138,126Z" fill="#e0e0e0" stroke="#e0e0e0" stroke-width="1.51"/><path d="M-11,-188L83,-80L121,-135Z" fill="#f1f1f1" stroke="#f1f1f1" stroke-width="1.51"/><path d="M24,29L-67,165L57,202Z" fill="#e2e2e2" stroke="#e2e2e2" stroke-width="1.51"/><path d="M-36,254L53,359L57,202Z" fill="#d8d8d8" stroke="#d8d8d8" stroke-width="1.51"/><path d="M16,598L39,707L89,616Z" fill="#ebebeb" stroke="#ebebeb" stroke-width="1.51"/><path d="M-11,-188L24,29L83,-80Z" fill="#efefef" stroke="#efefef" stroke-width="1.51"/><path d="M-11,-188L-101,30L24,29Z" fill="#eeeeee" stroke="#eeeeee" stroke-width="1.51"/><path d="M-71,409L6,469L53,359Z" fill="#dedede" stroke="#dedede" stroke-width="1.51"/><path d="M39,707L-117,705L58,815Z" fill="#f3f3f3" stroke="#f3f3f3" stroke-width="1.51"/><path d="M-67,165L-36,254L57,202Z" fill="#dedede" stroke="#dedede" stroke-width="1.51"/><path d="M-36,254L-71,409L53,359Z" fill="#dadada" stroke="#dadada" stroke-width="1.51"/><path d="M-101,30L-67,165L24,29Z" fill="#e7e7e7" stroke="#e7e7e7" stroke-width="1.51"/><path d="M16,598L-117,705L39,707Z" fill="#efefef" stroke="#efefef" stroke-width="1.51"/><path d="M-207,-99L-101,30L-11,-188Z" fill="#f3f3f3" stroke="#f3f3f3" stroke-width="1.51"/><path d="M-178,450L-164,638L6,469Z" fill="#e8e8e8" stroke="#e8e8e8" stroke-width="1.51"/><path d="M6,469L-164,638L16,598Z" fill="#e9e9e9" stroke="#e9e9e9" stroke-width="1.51"/><path d="M-71,409L-178,450L6,469Z" fill="#e2e2e2" stroke="#e2e2e2" stroke-width="1.51"/><path d="M-164,638L-117,705L16,598Z" fill="#f0f0f0" stroke="#f0f0f0" stroke-width="1.51"/><path d="M-190,369L-71,409L-36,254Z" fill="#dcdcdc" stroke="#dcdcdc" stroke-width="1.51"/><path d="M-67,165L-97,193L-36,254Z" fill="#dfdfdf" stroke="#dfdfdf" stroke-width="1.51"/><path d="M-101,30L-143,166L-67,165Z" fill="#e6e6e6" stroke="#e6e6e6" stroke-width="1.51"/><path d="M-97,193L-190,369L-36,254Z" fill="#dcdcdc" stroke="#dcdcdc" stroke-width="1.51"/><path d="M-143,166L-190,369L-97,193Z" fill="#dfdfdf" stroke="#dfdfdf" stroke-width="1.51"/><path d="M-143,166L-97,193L-67,165Z" fill="#e2e2e2" stroke="#e2e2e2" stroke-width="1.51"/><path d="M-190,369L-178,450L-71,409Z" fill="#e2e2e2" stroke="#e2e2e2" stroke-width="1.51"/><path d="M-207,-99L-143,166L-101,30Z" fill="#ededed" stroke="#ededed" stroke-width="1.51"/><path d="M-207,-99L-190,369L-143,166Z" fill="#e6e6e6" stroke="#e6e6e6" stroke-width="1.51"/><path d="M-178,450L-190,369L-164,638Z" fill="#e8e8e8" stroke="#e8e8e8" stroke-width="1.51"/></svg>