<svg xmlns="http://www.w3.org/2000/svg" width="1920" height="610"><path d="M-161,-224L24,-243L126,-255Z" fill="#c82527" stroke="#c82527" stroke-width="1.51"/><path d="M584,867L421,865L758,876Z" fill="#a9838f" stroke="#a9838f" stroke-width="1.51"/><path d="M126,-255L483,-238L787,-257Z" fill="#dc6a42" stroke="#dc6a42" stroke-width="1.51"/><path d="M758,876L421,865L851,883Z" fill="#a88a96" stroke="#a88a96" stroke-width="1.51"/><path d="M421,865L-217,881L851,883Z" fill="#a9667b" stroke="#a9667b" stroke-width="1.51"/><path d="M1041,848L851,883L1214,833Z" fill="#a1a1bb" stroke="#a1a1bb" stroke-width="1.51"/><path d="M787,-257L920,-235L1388,-255Z" fill="#e29476" stroke="#e29476" stroke-width="1.51"/><path d="M1214,833L851,883L1536,845Z" fill="#929ecd" stroke="#929ecd" stroke-width="1.51"/><path d="M1388,-255L1513,-243L1608,-246Z" fill="#bf7f80" stroke="#bf7f80" stroke-width="1.51"/><path d="M1536,845L851,883L1757,862Z" fill="#7d92c7" stroke="#7d92c7" stroke-width="1.51"/><path d="M2042,77L1985,73L2055,257Z" fill="#ac8f95" stroke="#ac8f95" stroke-width="1.51"/><path d="M1969,584L1945,673L2070,707Z" fill="#5f88bf" stroke="#5f88bf" stroke-width="1.51"/><path d="M2060,329L1882,417L2084,481Z" fill="#97a6cd" stroke="#97a6cd" stroke-width="1.51"/><path d="M1969,584L2070,707L2084,481Z" fill="#6d8dc2" stroke="#6d8dc2" stroke-width="1.51"/><path d="M2042,77L2055,257L2087,-33Z" fill="#ab838d" stroke="#ab838d" stroke-width="1.51"/><path d="M2060,329L2084,481L2087,-33Z" fill="#a79baa" stroke="#a79baa" stroke-width="1.51"/><path d="M2055,257L2060,329L2087,-33Z" fill="#a8939d" stroke="#a8939d" stroke-width="1.51"/><path d="M1975,802L1757,862L2090,788Z" fill="#436aaf" stroke="#436aaf" stroke-width="1.51"/><path d="M2084,481L2070,707L2090,788Z" fill="#5b7cb9" stroke="#5b7cb9" stroke-width="1.51"/><path d="M1777,-228L1904,-210L2098,-186Z" fill="#a0566c" stroke="#a0566c" stroke-width="1.51"/><path d="M1935,-80L2087,-33L2098,-186Z" fill="#a75871" stroke="#a75871" stroke-width="1.51"/><path d="M1904,-210L1935,-80L2098,-186Z" fill="#a6556c" stroke="#a6556c" stroke-width="1.51"/><path d="M2084,481L2090,788L2098,-186Z" fill="#9c9cbd" stroke="#9c9cbd" stroke-width="1.51"/><path d="M2087,-33L2084,481L2098,-186Z" fill="#aa7c89" stroke="#aa7c89" stroke-width="1.51"/><path d="M1985,73L2042,77L2087,-33Z" fill="#ad7984" stroke="#ad7984" stroke-width="1.51"/><path d="M2070,707L1975,802L2090,788Z" fill="#4669af" stroke="#4669af" stroke-width="1.51"/><path d="M1935,-80L1985,73L2087,-33Z" fill="#ae717e" stroke="#ae717e" stroke-width="1.51"/><path d="M1882,417L1969,584L2084,481Z" fill="#85a3ce" stroke="#85a3ce" stroke-width="1.51"/><path d="M1374,821L1214,833L1536,845Z" fill="#809bcb" stroke="#809bcb" stroke-width="1.51"/><path d="M1985,73L1887,254L2055,257Z" fill="#aca1a4" stroke="#aca1a4" stroke-width="1.51"/><path d="M1945,673L1975,802L2070,707Z" fill="#4f78b6" stroke="#4f78b6" stroke-width="1.51"/><path d="M2055,257L1887,254L2060,329Z" fill="#a9a9b2" stroke="#a9a9b2" stroke-width="1.51"/><path d="M1887,254L1882,417L2060,329Z" fill="#a6b2c1" stroke="#a6b2c1" stroke-width="1.51"/><path d="M1882,417L1829,530L1969,584Z" fill="#86acd2" stroke="#86acd2" stroke-width="1.51"/><path d="M1777,128L1887,254L1985,73Z" fill="#b3a6a1" stroke="#b3a6a1" stroke-width="1.51"/><path d="M1935,-80L1751,-20L1985,73Z" fill="#b58285" stroke="#b58285" stroke-width="1.51"/><path d="M1751,-20L1777,128L1985,73Z" fill="#ba9a92" stroke="#ba9a92" stroke-width="1.51"/><path d="M1945,673L1756,724L1975,802Z" fill="#5384bc" stroke="#5384bc" stroke-width="1.51"/><path d="M1756,724L1757,862L1975,802Z" fill="#4e7cb8" stroke="#4e7cb8" stroke-width="1.51"/><path d="M1829,530L1945,673L1969,584Z" fill="#6f9dca" stroke="#6f9dca" stroke-width="1.51"/><path d="M1776,342L1882,417L1887,254Z" fill="#acbec7" stroke="#acbec7" stroke-width="1.51"/><path d="M1829,530L1756,724L1945,673Z" fill="#6b9dca" stroke="#6b9dca" stroke-width="1.51"/><path d="M1904,-210L1777,-228L1935,-80Z" fill="#ad6270" stroke="#ad6270" stroke-width="1.51"/><path d="M1777,-228L1751,-20L1935,-80Z" fill="#b7757b" stroke="#b7757b" stroke-width="1.51"/><path d="M1777,128L1739,201L1887,254Z" fill="#b8b8ad" stroke="#b8b8ad" stroke-width="1.51"/><path d="M1688,-73L1751,-20L1777,-228Z" fill="#bf7f80" stroke="#bf7f80" stroke-width="1.51"/><path d="M1739,201L1776,342L1887,254Z" fill="#b6c1bb" stroke="#b6c1bb" stroke-width="1.51"/><path d="M1776,342L1829,530L1882,417Z" fill="#9ebcdb" stroke="#9ebcdb" stroke-width="1.51"/><path d="M1776,342L1647,385L1829,530Z" fill="#a7c7df" stroke="#a7c7df" stroke-width="1.51"/><path d="M1647,385L1665,547L1829,530Z" fill="#9bc4de" stroke="#9bc4de" stroke-width="1.51"/><path d="M1665,547L1756,724L1829,530Z" fill="#7db0d4" stroke="#7db0d4" stroke-width="1.51"/><path d="M1665,547L1616,635L1756,724Z" fill="#7bb2d4" stroke="#7bb2d4" stroke-width="1.51"/><path d="M1756,724L1639,778L1757,862Z" fill="#5a8bc0" stroke="#5a8bc0" stroke-width="1.51"/><path d="M1739,201L1666,230L1776,342Z" fill="#bdc9bd" stroke="#bdc9bd" stroke-width="1.51"/><path d="M1666,230L1647,385L1776,342Z" fill="#bcd2cc" stroke="#bcd2cc" stroke-width="1.51"/><path d="M1608,-246L1688,-73L1777,-228Z" fill="#bb7779" stroke="#bb7779" stroke-width="1.51"/><path d="M1751,-20L1641,100L1777,128Z" fill="#c3aa9a" stroke="#c3aa9a" stroke-width="1.51"/><path d="M1641,100L1739,201L1777,128Z" fill="#c2b9a8" stroke="#c2b9a8" stroke-width="1.51"/><path d="M1688,-73L1641,100L1751,-20Z" fill="#c79d91" stroke="#c79d91" stroke-width="1.51"/><path d="M1616,635L1639,778L1756,724Z" fill="#6ca2cc" stroke="#6ca2cc" stroke-width="1.51"/><path d="M1639,778L1536,845L1757,862Z" fill="#6087bf" stroke="#6087bf" stroke-width="1.51"/><path d="M1641,100L1666,230L1739,201Z" fill="#c3c4b1" stroke="#c3c4b1" stroke-width="1.51"/><path d="M1647,385L1509,497L1665,547Z" fill="#a8d1e5" stroke="#a8d1e5" stroke-width="1.51"/><path d="M1520,-104L1641,100L1688,-73Z" fill="#cf9d90" stroke="#cf9d90" stroke-width="1.51"/><path d="M1608,-246L1520,-104L1688,-73Z" fill="#c88681" stroke="#c88681" stroke-width="1.51"/><path d="M1616,635L1536,674L1639,778Z" fill="#79add2" stroke="#79add2" stroke-width="1.51"/><path d="M1520,-104L1445,36L1641,100Z" fill="#d7ae99" stroke="#d7ae99" stroke-width="1.51"/><path d="M1641,100L1433,215L1666,230Z" fill="#cdcfb6" stroke="#cdcfb6" stroke-width="1.51"/><path d="M1436,354L1647,385L1666,230Z" fill="#c7ddd2" stroke="#c7ddd2" stroke-width="1.51"/><path d="M1433,215L1436,354L1666,230Z" fill="#d2e0ca" stroke="#d2e0ca" stroke-width="1.51"/><path d="M1509,497L1616,635L1665,547Z" fill="#96c8df" stroke="#96c8df" stroke-width="1.51"/><path d="M1436,354L1509,497L1647,385Z" fill="#bedee9" stroke="#bedee9" stroke-width="1.51"/><path d="M1513,-243L1520,-104L1608,-246Z" fill="#c6827f" stroke="#c6827f" stroke-width="1.51"/><path d="M1445,36L1433,215L1641,100Z" fill="#d7c9ac" stroke="#d7c9ac" stroke-width="1.51"/><path d="M1536,674L1536,845L1639,778Z" fill="#6f9fcb" stroke="#6f9fcb" stroke-width="1.51"/><path d="M1509,497L1536,674L1616,635Z" fill="#91c4de" stroke="#91c4de" stroke-width="1.51"/><path d="M1513,-243L1388,-255L1520,-104Z" fill="#cd8882" stroke="#cd8882" stroke-width="1.51"/><path d="M1388,-255L1353,-119L1520,-104Z" fill="#d99286" stroke="#d99286" stroke-width="1.51"/><path d="M1509,497L1289,639L1536,674Z" fill="#9ecde3" stroke="#9ecde3" stroke-width="1.51"/><path d="M1289,639L1374,821L1536,674Z" fill="#8db9d9" stroke="#8db9d9" stroke-width="1.51"/><path d="M1536,674L1374,821L1536,845Z" fill="#77a3cd" stroke="#77a3cd" stroke-width="1.51"/><path d="M1290,507L1289,639L1509,497Z" fill="#b3dceb" stroke="#b3dceb" stroke-width="1.51"/><path d="M1353,-119L1445,36L1520,-104Z" fill="#dfa593" stroke="#dfa593" stroke-width="1.51"/><path d="M1436,354L1290,507L1509,497Z" fill="#c3e4f0" stroke="#c3e4f0" stroke-width="1.51"/><path d="M920,-235L1084,-166L1388,-255Z" fill="#e59582" stroke="#e59582" stroke-width="1.51"/><path d="M1084,-166L1238,-170L1388,-255Z" fill="#e39589" stroke="#e39589" stroke-width="1.51"/><path d="M1296,275L1346,356L1433,215Z" fill="#e1edd3" stroke="#e1edd3" stroke-width="1.51"/><path d="M1346,356L1290,507L1436,354Z" fill="#d2ebef" stroke="#d2ebef" stroke-width="1.51"/><path d="M1433,215L1346,356L1436,354Z" fill="#dbeed7" stroke="#dbeed7" stroke-width="1.51"/><path d="M1318,86L1433,215L1445,36Z" fill="#e2d0b0" stroke="#e2d0b0" stroke-width="1.51"/><path d="M1353,-119L1318,86L1445,36Z" fill="#e6b89e" stroke="#e6b89e" stroke-width="1.51"/><path d="M1318,86L1296,275L1433,215Z" fill="#e4e2c2" stroke="#e4e2c2" stroke-width="1.51"/><path d="M1196,-50L1318,86L1353,-119Z" fill="#eeb49c" stroke="#eeb49c" stroke-width="1.51"/><path d="M1289,639L1236,655L1374,821Z" fill="#99c0dc" stroke="#99c0dc" stroke-width="1.51"/><path d="M1236,655L1214,833L1374,821Z" fill="#91b2d6" stroke="#91b2d6" stroke-width="1.51"/><path d="M1238,-170L1353,-119L1388,-255Z" fill="#de9387" stroke="#de9387" stroke-width="1.51"/><path d="M1200,58L1171,275L1296,275Z" fill="#f0ebc7" stroke="#f0ebc7" stroke-width="1.51"/><path d="M1196,-50L1200,58L1318,86Z" fill="#f3c6a6" stroke="#f3c6a6" stroke-width="1.51"/><path d="M1200,58L1296,275L1318,86Z" fill="#eedcb9" stroke="#eedcb9" stroke-width="1.51"/><path d="M1144,433L1290,507L1346,356Z" fill="#d8eef5" stroke="#d8eef5" stroke-width="1.51"/><path d="M1238,-170L1196,-50L1353,-119Z" fill="#eba391" stroke="#eba391" stroke-width="1.51"/><path d="M1296,275L1144,433L1346,356Z" fill="#e4f3e6" stroke="#e4f3e6" stroke-width="1.51"/><path d="M1170,537L1236,655L1289,639Z" fill="#b4d8e9" stroke="#b4d8e9" stroke-width="1.51"/><path d="M1170,537L1289,639L1290,507Z" fill="#bde0ee" stroke="#bde0ee" stroke-width="1.51"/><path d="M1171,275L1144,433L1296,275Z" fill="#eef8e1" stroke="#eef8e1" stroke-width="1.51"/><path d="M1144,433L1170,537L1290,507Z" fill="#d2ebf4" stroke="#d2ebf4" stroke-width="1.51"/><path d="M1085,360L1144,433L1171,275Z" fill="#eff8e0" stroke="#eff8e0" stroke-width="1.51"/><path d="M1036,220L1171,275L1200,58Z" fill="#f6ebbd" stroke="#f6ebbd" stroke-width="1.51"/><path d="M1072,634L1041,848L1214,833Z" fill="#a1b7ce" stroke="#a1b7ce" stroke-width="1.51"/><path d="M1072,634L1214,833L1236,655Z" fill="#a7c5dd" stroke="#a7c5dd" stroke-width="1.51"/><path d="M1170,537L1072,634L1236,655Z" fill="#bbdbe5" stroke="#bbdbe5" stroke-width="1.51"/><path d="M1084,-166L1196,-50L1238,-170Z" fill="#f1a38d" stroke="#f1a38d" stroke-width="1.51"/><path d="M1031,37L1036,220L1200,58Z" fill="#fbdba7" stroke="#fbdba7" stroke-width="1.51"/><path d="M1196,-50L1031,37L1200,58Z" fill="#f9c59e" stroke="#f9c59e" stroke-width="1.51"/><path d="M1012,-37L1031,37L1196,-50Z" fill="#fcbf92" stroke="#fcbf92" stroke-width="1.51"/><path d="M1084,-166L1012,-37L1196,-50Z" fill="#f8af8b" stroke="#f8af8b" stroke-width="1.51"/><path d="M1144,433L1083,535L1170,537Z" fill="#d5eceb" stroke="#d5eceb" stroke-width="1.51"/><path d="M1083,535L1072,634L1170,537Z" fill="#c8e3e4" stroke="#c8e3e4" stroke-width="1.51"/><path d="M1036,220L1085,360L1171,275Z" fill="#f8f9cc" stroke="#f8f9cc" stroke-width="1.51"/><path d="M1085,360L1083,535L1144,433Z" fill="#e3f3ec" stroke="#e3f3ec" stroke-width="1.51"/><path d="M1031,37L928,54L1036,220Z" fill="#ffdd9c" stroke="#ffdd9c" stroke-width="1.51"/><path d="M906,641L1041,848L1072,634Z" fill="#b5caca" stroke="#b5caca" stroke-width="1.51"/><path d="M906,641L1072,634L1083,535Z" fill="#c8dfd6" stroke="#c8dfd6" stroke-width="1.51"/><path d="M902,-123L1012,-37L1084,-166Z" fill="#faac7c" stroke="#faac7c" stroke-width="1.51"/><path d="M901,424L1083,535L1085,360Z" fill="#eaf6e2" stroke="#eaf6e2" stroke-width="1.51"/><path d="M1036,220L901,424L1085,360Z" fill="#f9fccc" stroke="#f9fccc" stroke-width="1.51"/><path d="M901,424L855,515L1083,535Z" fill="#e4f1d7" stroke="#e4f1d7" stroke-width="1.51"/><path d="M920,-235L902,-123L1084,-166Z" fill="#f4a070" stroke="#f4a070" stroke-width="1.51"/><path d="M855,515L906,641L1083,535Z" fill="#d5e7d2" stroke="#d5e7d2" stroke-width="1.51"/><path d="M126,-255L297,-225L483,-238Z" fill="#da5338" stroke="#da5338" stroke-width="1.51"/><path d="M928,54L862,181L1036,220Z" fill="#ffe79f" stroke="#ffe79f" stroke-width="1.51"/><path d="M862,181L901,424L1036,220Z" fill="#fff9b6" stroke="#fff9b6" stroke-width="1.51"/><path d="M906,641L851,883L1041,848Z" fill="#abb3b9" stroke="#abb3b9" stroke-width="1.51"/><path d="M483,-238L593,-219L787,-257Z" fill="#e17d4f" stroke="#e17d4f" stroke-width="1.51"/><path d="M1012,-37L928,54L1031,37Z" fill="#ffca8c" stroke="#ffca8c" stroke-width="1.51"/><path d="M902,-123L928,54L1012,-37Z" fill="#ffbc80" stroke="#ffbc80" stroke-width="1.51"/><path d="M764,627L758,876L851,883Z" fill="#adaaaa" stroke="#adaaaa" stroke-width="1.51"/><path d="M862,181L778,401L901,424Z" fill="#fcf6bc" stroke="#fcf6bc" stroke-width="1.51"/><path d="M764,627L851,883L906,641Z" fill="#b8c0b8" stroke="#b8c0b8" stroke-width="1.51"/><path d="M787,-257L902,-123L920,-235Z" fill="#ec9666" stroke="#ec9666" stroke-width="1.51"/><path d="M768,133L862,181L928,54Z" fill="#ffdb90" stroke="#ffdb90" stroke-width="1.51"/><path d="M902,-123L742,-83L928,54Z" fill="#ffb376" stroke="#ffb376" stroke-width="1.51"/><path d="M742,-83L768,133L928,54Z" fill="#ffc57d" stroke="#ffc57d" stroke-width="1.51"/><path d="M752,178L778,401L862,181Z" fill="#ffeea5" stroke="#ffeea5" stroke-width="1.51"/><path d="M855,515L764,627L906,641Z" fill="#d0dbc5" stroke="#d0dbc5" stroke-width="1.51"/><path d="M787,-257L742,-83L902,-123Z" fill="#f49b64" stroke="#f49b64" stroke-width="1.51"/><path d="M778,401L855,515L901,424Z" fill="#eeefcf" stroke="#eeefcf" stroke-width="1.51"/><path d="M704,541L764,627L855,515Z" fill="#d7ddc1" stroke="#d7ddc1" stroke-width="1.51"/><path d="M768,133L752,178L862,181Z" fill="#ffe093" stroke="#ffe093" stroke-width="1.51"/><path d="M778,401L704,541L855,515Z" fill="#e7e7c6" stroke="#e7e7c6" stroke-width="1.51"/><path d="M631,637L584,867L758,876Z" fill="#afa09e" stroke="#afa09e" stroke-width="1.51"/><path d="M631,637L758,876L764,627Z" fill="#babaad" stroke="#babaad" stroke-width="1.51"/><path d="M742,-83L543,32L768,133Z" fill="#feba70" stroke="#feba70" stroke-width="1.51"/><path d="M625,245L580,396L778,401Z" fill="#fbe7ab" stroke="#fbe7ab" stroke-width="1.51"/><path d="M752,178L625,245L778,401Z" fill="#ffeba1" stroke="#ffeba1" stroke-width="1.51"/><path d="M624,-111L742,-83L787,-257Z" fill="#f3955c" stroke="#f3955c" stroke-width="1.51"/><path d="M593,-219L624,-111L787,-257Z" fill="#eb8854" stroke="#eb8854" stroke-width="1.51"/><path d="M624,-111L543,32L742,-83Z" fill="#fca060" stroke="#fca060" stroke-width="1.51"/><path d="M580,396L704,541L778,401Z" fill="#efe3c0" stroke="#efe3c0" stroke-width="1.51"/><path d="M543,32L752,178L768,133Z" fill="#fece7f" stroke="#fece7f" stroke-width="1.51"/><path d="M543,32L625,245L752,178Z" fill="#ffd181" stroke="#ffd181" stroke-width="1.51"/><path d="M704,541L631,637L764,627Z" fill="#d0d0b6" stroke="#d0d0b6" stroke-width="1.51"/><path d="M580,396L605,572L704,541Z" fill="#e5d7b6" stroke="#e5d7b6" stroke-width="1.51"/><path d="M605,572L631,637L704,541Z" fill="#d5ceb2" stroke="#d5ceb2" stroke-width="1.51"/><path d="M93,775L-217,881L421,865Z" fill="#a6546e" stroke="#a6546e" stroke-width="1.51"/><path d="M580,396L410,504L605,572Z" fill="#e9cfae" stroke="#e9cfae" stroke-width="1.51"/><path d="M543,32L476,108L625,245Z" fill="#fec374" stroke="#fec374" stroke-width="1.51"/><path d="M476,108L440,246L625,245Z" fill="#ffcd7f" stroke="#ffcd7f" stroke-width="1.51"/><path d="M433,329L580,396L625,245Z" fill="#ffdc9b" stroke="#ffdc9b" stroke-width="1.51"/><path d="M440,246L433,329L625,245Z" fill="#ffd58c" stroke="#ffd58c" stroke-width="1.51"/><path d="M605,572L416,722L631,637Z" fill="#cab9a4" stroke="#cab9a4" stroke-width="1.51"/><path d="M416,722L584,867L631,637Z" fill="#b9a198" stroke="#b9a198" stroke-width="1.51"/><path d="M420,-113L543,32L624,-111Z" fill="#f99255" stroke="#f99255" stroke-width="1.51"/><path d="M593,-219L483,-238L624,-111Z" fill="#eb7e4b" stroke="#eb7e4b" stroke-width="1.51"/><path d="M483,-238L420,-113L624,-111Z" fill="#ef7d48" stroke="#ef7d48" stroke-width="1.51"/><path d="M416,722L421,865L584,867Z" fill="#af8689" stroke="#af8689" stroke-width="1.51"/><path d="M410,504L416,722L605,572Z" fill="#d5b9a0" stroke="#d5b9a0" stroke-width="1.51"/><path d="M433,329L410,504L580,396Z" fill="#f8d0a8" stroke="#f8d0a8" stroke-width="1.51"/><path d="M326,29L476,108L543,32Z" fill="#fda85e" stroke="#fda85e" stroke-width="1.51"/><path d="M420,-113L326,29L543,32Z" fill="#fa9253" stroke="#fa9253" stroke-width="1.51"/><path d="M-30,785L-217,881L93,775Z" fill="#9f506a" stroke="#9f506a" stroke-width="1.51"/><path d="M410,504L315,585L416,722Z" fill="#d4ad99" stroke="#d4ad99" stroke-width="1.51"/><path d="M320,412L410,504L433,329Z" fill="#f7c5a3" stroke="#f7c5a3" stroke-width="1.51"/><path d="M336,206L440,246L476,108Z" fill="#febf75" stroke="#febf75" stroke-width="1.51"/><path d="M297,-225L420,-113L483,-238Z" fill="#e7683e" stroke="#e7683e" stroke-width="1.51"/><path d="M416,722L332,780L421,865Z" fill="#b28587" stroke="#b28587" stroke-width="1.51"/><path d="M326,29L336,206L476,108Z" fill="#fdac64" stroke="#fdac64" stroke-width="1.51"/><path d="M315,585L321,727L416,722Z" fill="#c69b90" stroke="#c69b90" stroke-width="1.51"/><path d="M297,-225L335,-106L420,-113Z" fill="#ec693e" stroke="#ec693e" stroke-width="1.51"/><path d="M335,-106L326,29L420,-113Z" fill="#f67d49" stroke="#f67d49" stroke-width="1.51"/><path d="M332,780L93,775L421,865Z" fill="#b0727e" stroke="#b0727e" stroke-width="1.51"/><path d="M336,206L433,329L440,246Z" fill="#ffc781" stroke="#ffc781" stroke-width="1.51"/><path d="M336,206L320,412L433,329Z" fill="#ffc78a" stroke="#ffc78a" stroke-width="1.51"/><path d="M321,727L332,780L416,722Z" fill="#ba8c8a" stroke="#ba8c8a" stroke-width="1.51"/><path d="M320,412L315,585L410,504Z" fill="#e8b99f" stroke="#e8b99f" stroke-width="1.51"/><path d="M156,272L128,393L320,412Z" fill="#fab189" stroke="#fab189" stroke-width="1.51"/><path d="M118,550L315,585L320,412Z" fill="#e6aa97" stroke="#e6aa97" stroke-width="1.51"/><path d="M128,393L118,550L320,412Z" fill="#efaa96" stroke="#efaa96" stroke-width="1.51"/><path d="M315,585L177,644L321,727Z" fill="#cb978d" stroke="#cb978d" stroke-width="1.51"/><path d="M145,-105L185,63L326,29Z" fill="#f67947" stroke="#f67947" stroke-width="1.51"/><path d="M145,-105L326,29L335,-106Z" fill="#f47044" stroke="#f47044" stroke-width="1.51"/><path d="M297,-225L145,-105L335,-106Z" fill="#ea5c39" stroke="#ea5c39" stroke-width="1.51"/><path d="M156,272L320,412L336,206Z" fill="#ffbb80" stroke="#ffbb80" stroke-width="1.51"/><path d="M326,29L185,63L336,206Z" fill="#fb9b5b" stroke="#fb9b5b" stroke-width="1.51"/><path d="M185,63L156,272L336,206Z" fill="#fba666" stroke="#fba666" stroke-width="1.51"/><path d="M321,727L93,775L332,780Z" fill="#b77a80" stroke="#b77a80" stroke-width="1.51"/><path d="M177,644L93,775L321,727Z" fill="#bd8082" stroke="#bd8082" stroke-width="1.51"/><path d="M118,550L177,644L315,585Z" fill="#d59a8e" stroke="#d59a8e" stroke-width="1.51"/><path d="M126,-255L145,-105L297,-225Z" fill="#df4932" stroke="#df4932" stroke-width="1.51"/><path d="M-23,99L156,272L185,63Z" fill="#f59258" stroke="#f59258" stroke-width="1.51"/><path d="M145,-105L-23,99L185,63Z" fill="#f07444" stroke="#f07444" stroke-width="1.51"/><path d="M-60,-93L-23,99L145,-105Z" fill="#e85b38" stroke="#e85b38" stroke-width="1.51"/><path d="M118,550L-5,641L177,644Z" fill="#cd8c85" stroke="#cd8c85" stroke-width="1.51"/><path d="M-5,641L93,775L177,644Z" fill="#be7d7d" stroke="#be7d7d" stroke-width="1.51"/><path d="M19,408L118,550L128,393Z" fill="#eba08f" stroke="#eba08f" stroke-width="1.51"/><path d="M126,-255L24,-243L145,-105Z" fill="#d83b2c" stroke="#d83b2c" stroke-width="1.51"/><path d="M19,408L128,393L156,272Z" fill="#f5a781" stroke="#f5a781" stroke-width="1.51"/><path d="M-70,263L19,408L156,272Z" fill="#f5a374" stroke="#f5a374" stroke-width="1.51"/><path d="M-23,99L-70,263L156,272Z" fill="#f3965f" stroke="#f3965f" stroke-width="1.51"/><path d="M24,-243L-60,-93L145,-105Z" fill="#dd3e2c" stroke="#dd3e2c" stroke-width="1.51"/><path d="M19,408L-52,528L118,550Z" fill="#e09688" stroke="#e09688" stroke-width="1.51"/><path d="M-52,528L-5,641L118,550Z" fill="#d18b82" stroke="#d18b82" stroke-width="1.51"/><path d="M-5,641L-30,785L93,775Z" fill="#b26a74" stroke="#b26a74" stroke-width="1.51"/><path d="M-131,-54L-131,50L-60,-93Z" fill="#db5237" stroke="#db5237" stroke-width="1.51"/><path d="M-60,-93L-131,50L-23,99Z" fill="#e2643d" stroke="#e2643d" stroke-width="1.51"/><path d="M-144,716L-30,785L-5,641Z" fill="#ae6974" stroke="#ae6974" stroke-width="1.51"/><path d="M-70,263L-143,367L19,408Z" fill="#ea9978" stroke="#ea9978" stroke-width="1.51"/><path d="M-161,-224L-60,-93L24,-243Z" fill="#cd2927" stroke="#cd2927" stroke-width="1.51"/><path d="M-143,367L-52,528L19,408Z" fill="#e39589" stroke="#e39589" stroke-width="1.51"/><path d="M-131,50L-70,263L-23,99Z" fill="#e78150" stroke="#e78150" stroke-width="1.51"/><path d="M-52,528L-144,716L-5,641Z" fill="#be7b7c" stroke="#be7b7c" stroke-width="1.51"/><path d="M-131,50L-155,282L-70,263Z" fill="#e48a5b" stroke="#e48a5b" stroke-width="1.51"/><path d="M-216,548L-144,716L-52,528Z" fill="#bc7c7e" stroke="#bc7c7e" stroke-width="1.51"/><path d="M-144,716L-217,881L-30,785Z" fill="#99516b" stroke="#99516b" stroke-width="1.51"/><path d="M-155,282L-143,367L-70,263Z" fill="#e7986e" stroke="#e7986e" stroke-width="1.51"/><path d="M-161,-224L-131,-54L-60,-93Z" fill="#d1372d" stroke="#d1372d" stroke-width="1.51"/><path d="M-143,367L-216,548L-52,528Z" fill="#d28b86" stroke="#d28b86" stroke-width="1.51"/><path d="M-161,-224L-155,282L-131,50Z" fill="#db643f" stroke="#db643f" stroke-width="1.51"/><path d="M-161,-224L-131,50L-131,-54Z" fill="#d44332" stroke="#d44332" stroke-width="1.51"/><path d="M-161,-224L-216,548L-155,282Z" fill="#dd875b" stroke="#dd875b" stroke-width="1.51"/><path d="M-155,282L-216,548L-143,367Z" fill="#da9083" stroke="#da9083" stroke-width="1.51"/><path d="M-216,548L-217,881L-144,716Z" fill="#a06172" stroke="#a06172" stroke-width="1.51"/></svg>